<svg width="619" height="400" viewBox="0 0 619 400" fill="none" xmlns="http://www.w3.org/2000/svg">
<rect width="380" height="181" transform="translate(119 109)" fill="url(#paint0_linear_1616_19872)"/>
<g opacity="0.5">
<path opacity="0.1" d="M361.831 76.6392L490.137 153.01V282.138L361.831 205.076V76.6392Z" fill="white"/>
<path opacity="0.2" d="M617.993 76.7163L489.691 153.007V282L617.993 205.018V76.7163Z" fill="white"/>
<path opacity="0.3" d="M361.831 77.062L490.137 0L618.442 77.062V77.6384L490.137 154.7L361.831 77.6384V77.062Z" fill="white"/>
<path opacity="0.1" d="M0 149.894L128.306 226.264V355.392L0 278.33V149.894Z" fill="white"/>
<path opacity="0.2" d="M256.162 149.971L127.86 226.261V355.254L256.162 278.273V149.971Z" fill="white"/>
<path opacity="0.3" d="M0 150.316L128.306 73.2544L256.611 150.316V150.893L128.306 227.955L0 150.893V150.316Z" fill="white"/>
<path opacity="0.1" d="M308.111 108.761L361.609 140.604V194.444L308.111 162.313V108.761Z" fill="white"/>
<path opacity="0.2" d="M414.919 108.793L361.423 140.603V194.387L414.919 162.289V108.793Z" fill="white"/>
<path opacity="0.3" d="M308.111 108.937L361.609 76.8057L415.106 108.937V109.177L361.609 141.309L308.111 109.177V108.937Z" fill="white"/>
<path opacity="0.1" d="M352.951 314.316L406.449 346.159V400L352.951 367.868V314.316Z" fill="white"/>
<path opacity="0.2" d="M459.759 314.348L406.263 346.158V399.942L459.759 367.844V314.348Z" fill="white"/>
<path opacity="0.3" d="M352.951 314.492L406.449 282.361L459.947 314.492V314.733L406.449 346.864L352.951 314.733V314.492Z" fill="white"/>
</g>
<defs>
<linearGradient id="paint0_linear_1616_19872" x1="380" y1="181" x2="22.3458" y2="-36.7097" gradientUnits="userSpaceOnUse">
<stop stop-color="#246BFD"/>
<stop offset="1" stop-color="#5089FF"/>
</linearGradient>
</defs>
</svg>
