<svg width="18" height="18" viewBox="0 0 18 18" fill="none" xmlns="http://www.w3.org/2000/svg">
<path fill-rule="evenodd" clip-rule="evenodd" d="M10.7676 8.36089H13.0741C13.4238 8.36089 13.6986 8.07175 13.6986 7.72307C13.6986 7.3659 13.4238 7.08526 13.0741 7.08526H10.7676C10.4179 7.08526 10.1431 7.3659 10.1431 7.72307C10.1431 8.07175 10.4179 8.36089 10.7676 8.36089ZM15.8137 3.93954C16.3216 3.93954 16.6547 4.11813 16.9877 4.50932C17.3208 4.90052 17.3791 5.4618 17.3042 5.9712L16.5131 11.55C16.3632 12.6224 15.4639 13.4124 14.4064 13.4124H5.32183C4.21436 13.4124 3.2984 12.5458 3.20681 11.4233L2.44074 2.1528L1.18339 1.93169C0.850312 1.87216 0.617161 1.54049 0.675449 1.20032C0.733737 0.852497 1.05848 0.622032 1.39988 0.673908L3.38584 0.97921C3.66895 1.03109 3.87712 1.26835 3.9021 1.5575L4.06031 3.46245C4.08529 3.73543 4.30179 3.93954 4.56825 3.93954H15.8137ZM5.18843 14.7565C4.48898 14.7565 3.92275 15.3348 3.92275 16.0492C3.92275 16.755 4.48898 17.3333 5.18843 17.3333C5.87956 17.3333 6.44579 16.755 6.44579 16.0492C6.44579 15.3348 5.87956 14.7565 5.18843 14.7565ZM14.5561 14.7565C13.8567 14.7565 13.2905 15.3348 13.2905 16.0492C13.2905 16.755 13.8567 17.3333 14.5561 17.3333C15.2473 17.3333 15.8135 16.755 15.8135 16.0492C15.8135 15.3348 15.2473 14.7565 14.5561 14.7565Z" fill="#246BFD"/>
</svg>
