<svg width="18" height="17" viewBox="0 0 18 17" fill="none" xmlns="http://www.w3.org/2000/svg">
<path d="M13.9322 10.4335C13.7164 10.6427 13.6172 10.9452 13.6664 11.2418L14.4072 15.3418C14.4697 15.6893 14.3231 16.041 14.0322 16.2418C13.7472 16.4502 13.3681 16.4752 13.0572 16.3085L9.3664 14.3835C9.23807 14.3152 9.09557 14.2785 8.94973 14.2743H8.7239C8.64557 14.286 8.5689 14.311 8.4989 14.3493L4.80723 16.2835C4.62473 16.3752 4.41807 16.4077 4.21557 16.3752C3.72223 16.2818 3.39307 15.8118 3.4739 15.316L4.21557 11.216C4.26473 10.9168 4.16557 10.6127 3.94973 10.4002L0.940567 7.4835C0.6889 7.23933 0.6014 6.87266 0.7164 6.54183C0.828067 6.21183 1.11307 5.971 1.45723 5.91683L5.5989 5.316C5.9139 5.2835 6.19057 5.09183 6.33223 4.8085L8.15723 1.06683C8.20057 0.983496 8.2564 0.906829 8.3239 0.841829L8.3989 0.783496C8.43807 0.740163 8.48307 0.704329 8.53307 0.675163L8.6239 0.641829L8.76557 0.583496H9.1164C9.42973 0.615996 9.70557 0.803496 9.84973 1.0835L11.6989 4.8085C11.8322 5.081 12.0914 5.27016 12.3906 5.316L16.5322 5.91683C16.8822 5.96683 17.1747 6.2085 17.2906 6.54183C17.3997 6.876 17.3056 7.24266 17.0489 7.4835L13.9322 10.4335Z" fill="#246BFD"/>
</svg>
