<svg width="17" height="18" viewBox="0 0 17 18" fill="none" xmlns="http://www.w3.org/2000/svg">
<path fill-rule="evenodd" clip-rule="evenodd" d="M0.166992 9.00515C0.166992 4.40554 3.90734 0.666992 8.50033 0.666992C13.0933 0.666992 16.8337 4.40554 16.8337 9.00515C16.8337 13.5951 13.0933 17.3337 8.50033 17.3337C3.90734 17.3337 0.166992 13.5951 0.166992 9.00515ZM11.557 9.84853C11.6454 9.76009 11.758 9.62342 11.7822 9.59126C11.9109 9.42242 11.9752 9.21338 11.9752 9.00515C11.9752 8.77119 11.9028 8.55411 11.7661 8.37724C11.7549 8.36603 11.7329 8.34215 11.7043 8.31102C11.6508 8.25278 11.574 8.16919 11.5006 8.09584C10.8411 7.38833 9.11969 6.23059 8.21879 5.87683C8.08205 5.82136 7.73617 5.69996 7.55116 5.69192C7.3742 5.69192 7.20528 5.73212 7.04441 5.81251C6.84331 5.92507 6.68244 6.10195 6.59396 6.31099C6.53765 6.4557 6.44917 6.88986 6.44917 6.8979C6.36069 7.37225 6.31242 8.14408 6.31242 8.99631C6.31242 9.80914 6.36069 10.548 6.43308 11.0304C6.43507 11.0324 6.44199 11.0669 6.45274 11.1205C6.48542 11.2834 6.5535 11.6229 6.62613 11.762C6.80309 12.0997 7.14897 12.3087 7.51899 12.3087H7.55116C7.79248 12.3007 8.29923 12.0917 8.29923 12.0836C9.15187 11.7299 10.833 10.6284 11.5087 9.89677L11.557 9.84853Z" fill="white"/>
</svg>
