<svg width="14" height="14" viewBox="0 0 14 14" fill="none" xmlns="http://www.w3.org/2000/svg">
<path opacity="0.4" d="M7.65152 1.07582L9.13584 4.05867C9.24519 4.27478 9.45391 4.42486 9.69462 4.45821L13.0287 4.94379C13.2234 4.97114 13.4001 5.07386 13.5194 5.2306C13.6375 5.38535 13.6881 5.58145 13.6595 5.77421C13.6361 5.93429 13.5608 6.08237 13.4454 6.19576L11.0296 8.53762C10.8529 8.70103 10.7729 8.94316 10.8155 9.17994L11.4103 12.4723C11.4737 12.8698 11.2103 13.2447 10.8155 13.3201C10.6528 13.3461 10.4861 13.3187 10.3394 13.244L7.36546 11.6946C7.14474 11.5832 6.88402 11.5832 6.66331 11.6946L3.68933 13.244C3.32392 13.4381 2.87116 13.306 2.66778 12.9459C2.59243 12.8025 2.56576 12.639 2.59043 12.4796L3.18523 9.18661C3.2279 8.95049 3.14722 8.70704 2.97118 8.54362L0.555329 6.2031C0.267934 5.92562 0.259265 5.46872 0.535991 5.18124C0.541993 5.17524 0.548661 5.16857 0.555329 5.1619C0.67002 5.04518 0.820719 4.97114 0.983421 4.95179L4.31747 4.46555C4.55752 4.43153 4.76623 4.28279 4.87626 4.06534L6.30723 1.07582C6.43459 0.819694 6.69865 0.660279 6.98538 0.66695H7.07473C7.32345 0.696965 7.54016 0.851043 7.65152 1.07582Z" fill="#246BFD"/>
<path d="M6.99533 11.6115C6.86619 11.6155 6.74039 11.6502 6.62723 11.7122L3.6678 13.2582C3.30569 13.431 2.87236 13.2969 2.66934 12.9506C2.59412 12.8091 2.56683 12.647 2.59213 12.4882L3.18321 9.20218C3.22315 8.96332 3.14327 8.72045 2.96954 8.55232L0.552609 6.2124C0.265719 5.9315 0.260394 5.47046 0.541293 5.18289C0.545287 5.17888 0.548615 5.17555 0.552609 5.17221C0.667099 5.05879 0.814871 4.98406 0.973958 4.96071L4.3108 4.46964C4.55243 4.43894 4.76211 4.28815 4.86861 4.06931L6.31904 1.04216C6.45682 0.79796 6.72108 0.652507 7.00065 0.667853C6.99533 0.866016 6.99533 11.4767 6.99533 11.6115Z" fill="#246BFD"/>
</svg>
